 <svg
              alt="Zopper Logo"
              xmlns="http://www.w3.org/2000/svg"
              width="128.043"
              height="30.885"
              viewBox="0 0 128.043 30.885"
            >
              {" "}
              <g id="logo" transform="translate(0 -0.002)">
                {" "}
                <path
                  id="Path_3630"
                  data-name="Path 3630"
                  d="M300.262,58.569a6.4,6.4,0,0,1-1.9-3.14,14.682,14.682,0,0,1-.572-4.113,13.369,13.369,0,0,1,.476-3.5,7.26,7.26,0,0,1,1.487-2.916A6.529,6.529,0,0,1,304,42.6a9.57,9.57,0,0,1,4.686.42,6.519,6.519,0,0,1,3.546,3.368A10.95,10.95,0,0,1,313.3,51.38a12.685,12.685,0,0,1-.44,3.562,9.315,9.315,0,0,1-1.141,2.527,6.328,6.328,0,0,1-3.863,2.656,8.421,8.421,0,0,1-4.212.1,7.282,7.282,0,0,1-3.385-1.651m3.037-11.4a6.075,6.075,0,0,0-1.2,4.436,7.178,7.178,0,0,0,1.077,4.112,2.839,2.839,0,0,0,1.33.875,2.954,2.954,0,0,0,1.933.065,3.248,3.248,0,0,0,1.74-1.458A7.43,7.43,0,0,0,309,51.444a6.725,6.725,0,0,0-.726-3.5,3.327,3.327,0,0,0-1.679-1.487,3.007,3.007,0,0,0-1.9-.033,3.3,3.3,0,0,0-1.392.745"
                  transform="translate(-249.386 -35.585)"
                  fill="#1d1e3f"
                ></path>{" "}
                <path
                  id="Path_3631"
                  data-name="Path 3631"
                  d="M408.226,64.342a2.149,2.149,0,0,1-.633,1.555,2.07,2.07,0,0,1-1.522.649h-2.152V50.416q0-4.535,2.6-6.187a10.315,10.315,0,0,1,5.637-1.65,8.893,8.893,0,0,1,3.2.616,5.951,5.951,0,0,1,2.565,1.781,10.471,10.471,0,0,1,1.9,6.476,10.686,10.686,0,0,1-1.9,6.606,5.89,5.89,0,0,1-4.876,2.463,6.317,6.317,0,0,1-2.786-.584,4.809,4.809,0,0,1-2.025-2.005Zm7.216-12.695a6.738,6.738,0,0,0-.948-3.887,3.118,3.118,0,0,0-2.725-1.361,3.053,3.053,0,0,0-2.656,1.361,6.713,6.713,0,0,0-.887,3.887,5.973,5.973,0,0,0,.95,3.688A3.117,3.117,0,0,0,411.9,56.7a3,3,0,0,0,2.6-1.362,6.331,6.331,0,0,0,.948-3.688"
                  transform="translate(-338.265 -35.657)"
                  fill="#1d1e3f"
                ></path>{" "}
                <path
                  id="Path_3632"
                  data-name="Path 3632"
                  d="M516.419,64.342a2.14,2.14,0,0,1-.636,1.555,2.06,2.06,0,0,1-1.519.649h-2.152V50.416q0-4.535,2.595-6.187a10.315,10.315,0,0,1,5.637-1.65,8.915,8.915,0,0,1,3.2.616,5.979,5.979,0,0,1,2.564,1.781,10.488,10.488,0,0,1,1.9,6.476,10.7,10.7,0,0,1-1.9,6.606,5.884,5.884,0,0,1-4.876,2.463,6.318,6.318,0,0,1-2.786-.584,4.819,4.819,0,0,1-2.025-2.005Zm7.216-12.695a6.718,6.718,0,0,0-.951-3.887,3.105,3.105,0,0,0-2.719-1.361,3.057,3.057,0,0,0-2.659,1.361,6.709,6.709,0,0,0-.888,3.887,5.975,5.975,0,0,0,.949,3.688A3.119,3.119,0,0,0,520.09,56.7a2.99,2.99,0,0,0,2.595-1.362,6.312,6.312,0,0,0,.951-3.688"
                  transform="translate(-428.873 -35.657)"
                  fill="#1d1e3f"
                ></path>{" "}
                <path
                  id="Path_3633"
                  data-name="Path 3633"
                  d="M632.709,54.885h3.169a7.1,7.1,0,0,1-2.661,4.146,7.948,7.948,0,0,1-4.942,1.489,6.975,6.975,0,0,1-5.631-2.4q-2.03-2.328-2.028-6.67a9.768,9.768,0,0,1,1.962-6.476,6.986,6.986,0,0,1,5.635-2.4,7.511,7.511,0,0,1,5.892,2.33,10.038,10.038,0,0,1,2.027,6.672v.713a1.108,1.108,0,0,1-.066.453h-10.95a4.49,4.49,0,0,0,.948,2.979,2.96,2.96,0,0,0,2.471,1.037,3.522,3.522,0,0,0,1.836-.453.893.893,0,0,0,.349-.227c.1-.106.221-.227.345-.357a1.424,1.424,0,0,1,.475-.518,1.86,1.86,0,0,1,1.172-.324m-7.595-5.054h6.457a4.27,4.27,0,0,0-.887-2.589,3,3,0,0,0-2.343-.908,3.043,3.043,0,0,0-2.278.908,3.729,3.729,0,0,0-.948,2.589"
                  transform="translate(-519.738 -35.657)"
                  fill="#1d1e3f"
                ></path>{" "}
                <path
                  id="Path_3634"
                  data-name="Path 3634"
                  d="M736.27,42.19h-.331a12.89,12.89,0,0,0-3.474.475,8.148,8.148,0,0,0-2.945,1.487,7.372,7.372,0,0,0-2.086,2.876,11.431,11.431,0,0,0-.76,4.434v5.462h.017v3.265H729a2.2,2.2,0,0,0,1.63-.694,2.3,2.3,0,0,0,.679-1.664v-.907h0v-6a4.115,4.115,0,0,1,.925-2.976,3.818,3.818,0,0,1,2.846-.95H736.6v-4.8Z"
                  transform="translate(-608.559 -35.331)"
                  fill="#1d1e3f"
                ></path>{" "}
                <path
                  id="Path_3635"
                  data-name="Path 3635"
                  d="M209.778,56.884a2.3,2.3,0,0,0-1.668-.676h-1.018V56.2h-6.264L210.144,46V42.146h-14.4v1.49a2.131,2.131,0,0,0,.658,1.588,2.2,2.2,0,0,0,1.588.639h6.672l-9.447,10.68v3.58h15.262V58.556a2.234,2.234,0,0,0-.7-1.673"
                  transform="translate(-163.482 -35.295)"
                  fill="#1d1e3f"
                ></path>{" "}
                <path
                  id="Path_3636"
                  data-name="Path 3636"
                  d="M36.351,43.185,26.094,53.445l-3.989,3.989a4.188,4.188,0,0,0,.036-.55,4.3,4.3,0,0,0-4.956-4.251L27.453,42.367h5.7a4.278,4.278,0,0,0,2.582.863,4.178,4.178,0,0,0,.613-.045"
                  transform="translate(-14.392 -35.48)"
                  fill="#ed763b"
                ></path>{" "}
                <path
                  id="Path_3637"
                  data-name="Path 3637"
                  d="M130.2,40.36a3.459,3.459,0,0,0,1.594-.39,3.4,3.4,0,0,1-1.6.4c-.074,0-.149,0-.22-.009Z"
                  transform="translate(-108.847 -33.472)"
                  fill="#e85739"
                ></path>{" "}
                <path
                  id="Path_3638"
                  data-name="Path 3638"
                  d="M144.417,36.163a.419.419,0,0,1-.062.062,3.213,3.213,0,0,1-.309.262,3.849,3.849,0,0,0,.372-.324"
                  transform="translate(-120.631 -30.284)"
                  fill="#e85739"
                ></path>{" "}
                <path
                  id="Path_3639"
                  data-name="Path 3639"
                  d="M117.012,3.51a3.428,3.428,0,0,1-.018.351,1.8,1.8,0,0,1-.03.214c-.006.045-.015.086-.024.128a3.248,3.248,0,0,1-.223.7c-.039.083-.08.167-.125.247-.027.048-.051.1-.08.143a2.528,2.528,0,0,1-.187.28c-.065.083-.131.167-.205.247A1.508,1.508,0,0,1,116,5.94a3.849,3.849,0,0,1-.372.324l-.006.006a3.315,3.315,0,0,1-.458.289,3.461,3.461,0,0,1-1.594.39h-.229A3.446,3.446,0,0,1,113.3.074h.271c.119,0,.232.006.354.018a3.457,3.457,0,0,1,1.083.3c.068.033.14.066.2.1.1.051.19.11.286.172a2.12,2.12,0,0,1,.193.14h0c.012.012.027.021.039.033.051.039.1.08.149.125l0,0,.119.116.419.506v0l.089.143c.03.047.054.1.08.143a.011.011,0,0,0,0,.006c.024.042.045.08.065.122a.717.717,0,0,1,.045.1.3.3,0,0,1,.021.045l.009.03.259.985a3.434,3.434,0,0,1,.018.351"
                  transform="translate(-92.218 -0.061)"
                  fill="#00a8e6"
                ></path>{" "}
                <path
                  id="Path_3640"
                  data-name="Path 3640"
                  d="M3.671,110.473q-.112-.009-.223-.009a3.448,3.448,0,0,0-1.493,6.556c.057.027.113.051.17.074s.1.039.149.057l.152.053a2.838,2.838,0,0,0,.324.08,3.186,3.186,0,0,0,.7.074,2.585,2.585,0,0,0,.265-.012,3.446,3.446,0,0,0-.042-6.874"
                  transform="translate(0 -92.508)"
                  fill="#ed763b"
                ></path>{" "}
                <path
                  id="Path_3641"
                  data-name="Path 3641"
                  d="M117.012,3.449a3.428,3.428,0,0,1-.018.351,1.8,1.8,0,0,1-.03.214c-.006.045-.015.086-.024.128a3.248,3.248,0,0,1-.223.7c-.039.083-.08.167-.125.247-.027.048-.051.1-.08.143a2.528,2.528,0,0,1-.187.28c-.065.083-.131.167-.205.247a1.508,1.508,0,0,1-.116.122.427.427,0,0,1-.062.062,3.211,3.211,0,0,1-.309.262l-.006.006a3.315,3.315,0,0,1-.458.289,3.4,3.4,0,0,1-1.6.4c-.074,0-.149,0-.22-.009A3.446,3.446,0,0,1,113.3.013,2.524,2.524,0,0,1,113.565,0a3.514,3.514,0,0,1,.589.051c.045.006.089.015.134.024a.042.042,0,0,0,.021.006c.042.009.086.021.128.033.092.024.182.051.274.083a3.519,3.519,0,0,1,.492.227l.011.005c.1.051.19.11.286.172a2.12,2.12,0,0,1,.193.14h0c.012.012.027.021.039.033.051.039.1.08.149.125l0,0,.119.116a3.237,3.237,0,0,1,.419.506v0l.089.143c.03.047.054.1.08.143a.011.011,0,0,0,0,.006c.033.059.059.119.086.178l.024.042a.3.3,0,0,1,.021.045l.009.03a3.468,3.468,0,0,1,.211.672l.018.1c.012.072.021.143.03.217a3.434,3.434,0,0,1,.018.351"
                  transform="translate(-92.218)"
                  fill="#fff"
                ></path>{" "}
                <path
                  id="Path_3642"
                  data-name="Path 3642"
                  d="M117.012,3.449a3.428,3.428,0,0,1-.018.351,1.8,1.8,0,0,1-.03.214c-.006.045-.015.086-.024.128a3.248,3.248,0,0,1-.223.7c-.039.083-.08.167-.125.247-.027.048-.051.1-.08.143a2.528,2.528,0,0,1-.187.28c-.065.083-.131.167-.205.247a1.508,1.508,0,0,1-.116.122.427.427,0,0,1-.062.062,3.211,3.211,0,0,1-.309.262l-.006.006a3.315,3.315,0,0,1-.458.289,3.4,3.4,0,0,1-1.6.4c-.074,0-.149,0-.22-.009A3.446,3.446,0,0,1,113.3.013,2.524,2.524,0,0,1,113.565,0a3.514,3.514,0,0,1,.589.051c.045.006.089.015.134.024a.042.042,0,0,0,.021.006c.042.009.086.021.128.033.092.024.182.051.274.083a3.519,3.519,0,0,1,.492.227l.011.005c.1.051.19.11.286.172a2.12,2.12,0,0,1,.193.14h0c.012.012.027.021.039.033.051.039.1.08.149.125l0,0,.119.116a3.237,3.237,0,0,1,.419.506v0l.089.143c.03.047.054.1.08.143a.011.011,0,0,0,0,.006c.033.059.059.119.086.178l.024.042a.3.3,0,0,1,.021.045l.009.03a3.468,3.468,0,0,1,.211.672l.018.1c.012.072.021.143.03.217a3.434,3.434,0,0,1,.018.351"
                  transform="translate(-92.218)"
                  fill="#ed763b"
                ></path>{" "}
                <path
                  id="Path_3643"
                  data-name="Path 3643"
                  d="M17.141,3.51A4.28,4.28,0,0,1,18.874.074H3.6a3.434,3.434,0,0,0-3.146,2A3.4,3.4,0,0,0,.131,3.513V6.949H18.874A4.286,4.286,0,0,1,17.141,3.51"
                  transform="translate(-0.11 -0.061)"
                  fill="#00b5ea"
                ></path>{" "}
                <path
                  id="Path_3644"
                  data-name="Path 3644"
                  d="M52.428,110.465H51.418v.009H37.077a4.3,4.3,0,0,1,1.722,3.439,4.217,4.217,0,0,1-.036.55,4.285,4.285,0,0,1-1.687,2.885H55.844v-3.467a3.417,3.417,0,0,0-3.416-3.417"
                  transform="translate(-31.05 -92.509)"
                  fill="#263e91"
                ></path>{" "}
              </g>{" "}
            </svg>